# xmcd
#
# Track frame offsets: 
#        150
#        19772
#        38224
#        55342
#        76643
#        94606
#        112175
#        129742
#        144620
#        165169
#
# Disc length: 2487 seconds
#
# Revision: 0
# Processed by: cddbd v1.5.2PL0 Copyright (c) Steve Scherf et al.
# Submitted via: ExactAudioCopy v0.99pb5
#
DISCID=7a09b50a
DTITLE=A Death In The Family - Small Town Stories
DYEAR=2009
DGENRE=A Cappella
TTITLE0=This Letters Proof
TTITLE1=Erasing The Maps
TTITLE2=Vodka and Balconies
TTITLE3=Sinking Slowly
TTITLE4=Our Divide
TTITLE5=Minor Chord In The Melody
TTITLE6=Bottom Of The Lake
TTITLE7=Traffic
TTITLE8=Lets Lose
TTITLE9=His Body, It Tells Stories
EXTD=
EXTT0=
EXTT1=
EXTT2=
EXTT3=
EXTT4=
EXTT5=
EXTT6=
EXTT7=
EXTT8=
EXTT9=
PLAYORDER=
